<svg width="22" height="22" viewBox="0 0 22 22" fill="none" xmlns="http://www.w3.org/2000/svg">
<path fill-rule="evenodd" clip-rule="evenodd" d="M5.71755 14.5473L7.5276 17.6825C7.7825 18.124 7.62983 18.6937 7.18832 18.9486C6.74682 19.2035 6.17705 19.0509 5.92212 18.6093L3.87651 15.0662C4.49036 14.8946 5.10215 14.7136 5.7175 14.5473L5.71755 14.5473ZM18.5331 11.276C18.5088 11.262 18.4874 11.2433 18.4703 11.2211C18.4531 11.1988 18.4405 11.1734 18.4332 11.1463C18.4259 11.1191 18.424 11.0909 18.4276 11.063C18.4312 11.0351 18.4403 11.0083 18.4543 10.9839C18.4683 10.9595 18.4869 10.9382 18.5092 10.921C18.5314 10.9039 18.5568 10.8913 18.5839 10.884C18.6111 10.8766 18.6394 10.8747 18.6672 10.8783C18.6951 10.882 18.722 10.891 18.7463 10.905L20.7172 12.0429C20.7416 12.0569 20.7629 12.0756 20.7801 12.0978C20.7972 12.1201 20.8098 12.1455 20.8171 12.1726C20.8245 12.1997 20.8264 12.228 20.8228 12.2559C20.8192 12.2837 20.8101 12.3106 20.7961 12.335C20.7821 12.3593 20.7634 12.3807 20.7412 12.3978C20.7189 12.415 20.6935 12.4276 20.6664 12.4349C20.6393 12.4422 20.611 12.4441 20.5831 12.4405C20.5553 12.4369 20.5284 12.4279 20.504 12.4139L18.5331 11.276ZM17.4799 6.17617C17.4659 6.20053 17.4472 6.22189 17.4249 6.23903C17.4027 6.25618 17.3773 6.26878 17.3502 6.2761C17.323 6.28343 17.2947 6.28534 17.2669 6.28173C17.239 6.27812 17.2122 6.26906 17.1878 6.25506C17.1634 6.24106 17.1421 6.22241 17.1249 6.20015C17.1078 6.1779 17.0952 6.15249 17.0879 6.12537C17.0805 6.09825 17.0786 6.06995 17.0822 6.04209C17.0858 6.01423 17.0949 5.98736 17.1089 5.963L18.2468 3.99211C18.2751 3.94292 18.3217 3.90697 18.3765 3.89218C18.4313 3.87738 18.4897 3.88495 18.5389 3.91322C18.5881 3.94149 18.624 3.98814 18.6388 4.04291C18.6536 4.09768 18.646 4.15609 18.6178 4.20528L17.4799 6.17617ZM19.0623 8.50869C19.0351 8.51596 19.0067 8.5178 18.9788 8.5141C18.9508 8.51041 18.9239 8.50124 18.8995 8.48714C18.8751 8.47303 18.8538 8.45426 18.8366 8.4319C18.8195 8.40953 18.8069 8.38401 18.7996 8.35679C18.7924 8.32957 18.7905 8.30118 18.7942 8.27325C18.7979 8.24532 18.8071 8.21839 18.8212 8.194C18.8353 8.16961 18.8541 8.14823 18.8764 8.1311C18.8988 8.11396 18.9243 8.1014 18.9515 8.09412L21.1498 7.50511C21.177 7.49783 21.2054 7.49599 21.2333 7.49969C21.2612 7.50339 21.2882 7.51255 21.3126 7.52665C21.337 7.54076 21.3583 7.55953 21.3755 7.58189C21.3926 7.60426 21.4052 7.62978 21.4124 7.657C21.4197 7.68422 21.4216 7.71261 21.4179 7.74054C21.4142 7.76847 21.405 7.7954 21.3909 7.81979C21.3768 7.84418 21.358 7.86556 21.3357 7.8827C21.3133 7.89983 21.2878 7.9124 21.2605 7.91967L19.0623 8.50869ZM12.9166 2.95575C12.479 3.07301 12.2169 3.52693 12.3342 3.96452L15.3966 15.3936C15.5138 15.8312 15.9677 16.0932 16.4053 15.976C16.8429 15.8587 17.105 15.4048 16.9878 14.9672L13.9254 3.53815C13.8082 3.1006 13.3542 2.83853 12.9166 2.95575ZM6.70514 13.8569L5.57549 9.64108C4.4424 9.99218 3.28062 10.2463 2.13455 10.5533C1.01182 10.8541 0.339362 12.0188 0.66051 13.2173C0.981659 14.4157 2.14633 15.0881 3.26906 14.7873C4.41516 14.4802 5.54825 14.1194 6.70514 13.8569ZM5.98442 9.50908C9.12054 8.45403 11.1674 6.68986 12.1892 5.08339L14.7115 14.4971C13.0234 13.6168 10.3687 13.1124 7.12525 13.7667L5.98442 9.50904V9.50908ZM15.5238 7.84314L16.6241 7.8529C16.722 7.85375 16.8043 7.91752 16.8297 8.01214L17.266 9.64057C17.2914 9.73514 17.252 9.83152 17.1676 9.88128L16.2196 10.4398L15.5238 7.84314Z" fill="currentColor"/>
</svg>
