<svg width="22" height="22" viewBox="0 0 22 22" fill="none" xmlns="http://www.w3.org/2000/svg">
<g clip-path="url(#clip0_279_3234)">
<path d="M11 0.458008L0.458374 6.87467L1.37504 8.70801L11 2.74967L20.625 8.70801L21.5417 6.87467L11 0.458008Z" fill="currentColor"/>
<path d="M16.0417 10.083H5.95837V10.9997H16.0417V10.083Z" fill="currentColor"/>
<path d="M2.29171 19.2503C2.29171 19.3719 2.24342 19.4885 2.15746 19.5744C2.07151 19.6604 1.95493 19.7087 1.83337 19.7087C1.71182 19.7087 1.59524 19.6604 1.50928 19.5744C1.42333 19.4885 1.37504 19.3719 1.37504 19.2503V18.792H0.458374V21.542H3.20837V18.792H2.29171V19.2503Z" fill="currentColor"/>
<path d="M15.125 11.917H6.875V12.8337H15.125V11.917Z" fill="currentColor"/>
<path d="M15.125 13.75H6.875V14.6667H15.125V13.75Z" fill="currentColor"/>
<path d="M11.4584 16.0417C11.4584 16.1632 11.4101 16.2798 11.3241 16.3658C11.2382 16.4517 11.1216 16.5 11 16.5C10.8785 16.5 10.7619 16.4517 10.6759 16.3658C10.59 16.2798 10.5417 16.1632 10.5417 16.0417V15.5833H6.87504V17.875H7.79171V21.5417H15.125V15.5833H11.4584V16.0417ZM5.95837 19.25C5.95837 19.3716 5.91009 19.4881 5.82413 19.5741C5.73818 19.66 5.6216 19.7083 5.50004 19.7083C5.37848 19.7083 5.2619 19.66 5.17595 19.5741C5.09 19.4881 5.04171 19.3716 5.04171 19.25V18.7917H4.12504V21.5417H6.87504V18.7917H5.95837V19.25ZM2.29171 15.5833C2.29171 15.7049 2.24342 15.8215 2.15746 15.9074C2.07151 15.9934 1.95493 16.0417 1.83337 16.0417C1.71182 16.0417 1.59524 15.9934 1.50928 15.9074C1.42333 15.8215 1.37504 15.7049 1.37504 15.5833V15.125H0.458374V17.875H3.20837V15.125H2.29171V15.5833Z" fill="currentColor"/>
<path d="M11 3.82715L2.75 8.93298V14.2084H4.125V17.8751H5.95833V11.9167H5.5C5.37844 11.9167 5.26186 11.8684 5.17591 11.7825C5.08996 11.6965 5.04167 11.58 5.04167 11.4584V9.62506C5.04167 9.50351 5.08996 9.38693 5.17591 9.30097C5.26186 9.21502 5.37844 9.16673 5.5 9.16673H16.5C16.6216 9.16673 16.7381 9.21502 16.8241 9.30097C16.91 9.38693 16.9583 9.50351 16.9583 9.62506V11.4584C16.9583 11.58 16.91 11.6965 16.8241 11.7825C16.7381 11.8684 16.6216 11.9167 16.5 11.9167H16.0417V21.5417H19.25V8.93298L11 3.82715Z" fill="currentColor"/>
</g>
<defs>
<clipPath id="clip0_279_3234">
<rect width="22" height="22" fill="currentColor"/>
</clipPath>
</defs>
</svg>
