<svg width="22" height="22" viewBox="0 0 22 22" fill="none" xmlns="http://www.w3.org/2000/svg">
<path d="M13.7487 16.5003V19.25H8.24937V16.5003C8.24937 16.318 8.32179 16.1432 8.45071 16.0142C8.57963 15.8853 8.75447 15.8129 8.93679 15.8129H13.0613C13.2436 15.8129 13.4185 15.8853 13.5474 16.0142C13.6763 16.1432 13.7487 16.318 13.7487 16.5003ZM10.999 8.9387C10.2408 8.9387 9.62421 9.55532 9.62421 10.3135C9.62421 11.0718 10.2408 11.6884 10.999 11.6884C11.7573 11.6884 12.3739 11.0718 12.3739 10.3135C12.3739 9.55532 11.7573 8.9387 10.999 8.9387ZM19.2481 9.67699V19.25H15.1236V16.5003C15.1236 15.3633 14.1983 14.4381 13.0613 14.4381H8.93679C7.7998 14.4381 6.87453 15.3633 6.87453 16.5003V19.25H2.75001V9.67699C2.74902 9.35378 2.82205 9.03464 2.96349 8.74402C3.10492 8.4534 3.31102 8.19902 3.56598 8.00037L9.68745 3.20424C10.0613 2.90999 10.5233 2.75 10.999 2.75C11.4748 2.75 11.9368 2.90999 12.3106 3.20424L16.4984 6.48461V4.12607H17.8732V7.56111L18.4321 7.999C18.687 8.19771 18.893 8.45211 19.0345 8.74271C19.1759 9.03332 19.249 9.35243 19.2481 9.67562V9.67699ZM13.7487 10.3135C13.7487 8.79709 12.5155 7.56386 10.999 7.56386C9.4826 7.56386 8.24937 8.79709 8.24937 10.3135C8.24937 11.83 9.4826 13.0632 10.999 13.0632C12.5155 13.0632 13.7487 11.83 13.7487 10.3135Z" fill="currentColor"/>
</svg>
