<svg width="20" height="20" viewBox="0 0 20 20" fill="none" xmlns="http://www.w3.org/2000/svg">
<path fill-rule="evenodd" clip-rule="evenodd" d="M10.0001 3.50141C11.9029 3.50141 13.4454 5.04395 13.4454 6.94672C13.4454 8.84953 11.9029 10.392 10.0001 10.392C8.09725 10.392 6.55478 8.84953 6.55478 6.94672C6.55478 5.04398 8.09725 3.50141 10.0001 3.50141ZM10.3126 13.273V19.7386L16.6903 17.2588V13.2155L11.7034 15.1546C11.5584 15.2107 11.397 15.1508 11.3216 15.0202L10.3126 13.273ZM9.68756 19.7386V13.273L8.67881 15.0203C8.64036 15.0867 8.57882 15.1365 8.50594 15.1603C8.43305 15.1842 8.35394 15.1803 8.28373 15.1495L3.3099 13.2155V17.2588L9.68756 19.7386ZM16.8663 9.77266L10.4516 12.2669L11.7275 14.4768L18.1422 11.9826L16.8663 9.77266ZM9.5485 12.2669L3.13381 9.77266L1.85791 11.9826L8.27264 14.4768L9.5485 12.2669ZM10.0001 11.017C8.289 11.017 6.82455 9.96125 6.2226 8.46559L3.85686 9.38543L10.0001 11.7741L16.1433 9.38543L13.7775 8.46559C13.1756 9.96121 11.7112 11.017 10.0001 11.017ZM16.2903 6.71648C16.463 6.71648 16.6028 6.85641 16.6028 7.02898C16.6028 7.20156 16.463 7.34148 16.2903 7.34148H14.8268C14.7439 7.34148 14.6644 7.30856 14.6058 7.24996C14.5472 7.19135 14.5143 7.11186 14.5143 7.02898C14.5143 6.9461 14.5472 6.86662 14.6058 6.80801C14.6644 6.74941 14.7439 6.71648 14.8268 6.71648H16.2903ZM9.68756 0.574219C9.68756 0.491339 9.72048 0.411853 9.77909 0.353248C9.83769 0.294643 9.91718 0.261719 10.0001 0.261719C10.0829 0.261719 10.1624 0.294643 10.221 0.353248C10.2796 0.411853 10.3126 0.491339 10.3126 0.574219V2.03785C10.3126 2.12073 10.2796 2.20022 10.221 2.25882C10.1624 2.31743 10.0829 2.35035 10.0001 2.35035C9.91718 2.35035 9.83769 2.31743 9.77909 2.25882C9.72048 2.20022 9.68756 2.12073 9.68756 2.03785V0.574219ZM6.53299 1.54184C6.493 1.47035 6.48281 1.38599 6.50463 1.30704C6.52645 1.22809 6.57851 1.16093 6.64953 1.12012C6.72055 1.07931 6.80479 1.06815 6.88398 1.08906C6.96318 1.10997 7.03094 1.16125 7.07256 1.2318L7.80436 2.49934C7.84434 2.57082 7.85453 2.65519 7.83271 2.73413C7.8109 2.81308 7.75883 2.88024 7.68781 2.92105C7.6168 2.96186 7.53255 2.97302 7.45336 2.95211C7.37417 2.93121 7.30641 2.87992 7.26479 2.80938L6.53299 1.54184ZM4.28393 3.95902C4.21303 3.91726 4.16153 3.84915 4.14064 3.76957C4.11975 3.68998 4.13117 3.60537 4.17241 3.53417C4.21365 3.46297 4.28136 3.41095 4.36079 3.38947C4.44022 3.36799 4.52492 3.37878 4.59643 3.41949L5.86393 4.15129C5.93394 4.19349 5.98458 4.26151 6.00493 4.34068C6.02529 4.41985 6.01374 4.50386 5.97276 4.5746C5.93179 4.64534 5.86467 4.69715 5.78587 4.71889C5.70706 4.74063 5.62287 4.73055 5.55143 4.69082L4.28393 3.95902ZM3.54529 7.17699C3.46241 7.17699 3.38293 7.14407 3.32432 7.08546C3.26572 7.02686 3.23279 6.94737 3.23279 6.86449C3.23279 6.78161 3.26572 6.70213 3.32432 6.64352C3.38293 6.58492 3.46241 6.55199 3.54529 6.55199H5.00889C5.1815 6.55199 5.32139 6.69191 5.32139 6.86449C5.32139 7.03707 5.1815 7.17699 5.00889 7.17699H3.54529ZM12.9055 1.31402C12.9467 1.24248 13.0145 1.1902 13.0942 1.16868C13.1739 1.14716 13.2588 1.15816 13.3304 1.19926C13.4019 1.24038 13.4542 1.30824 13.4757 1.3879C13.4972 1.46756 13.4862 1.55251 13.4451 1.62406L12.7133 2.8916C12.6722 2.96315 12.6044 3.01544 12.5247 3.03696C12.445 3.05849 12.3601 3.04748 12.2885 3.00637C12.217 2.96525 12.1647 2.8974 12.1432 2.81773C12.1216 2.73807 12.1327 2.65311 12.1738 2.58156L12.9055 1.31402ZM15.3215 3.56191C15.393 3.5212 15.4777 3.51041 15.5571 3.5319C15.6366 3.55338 15.7043 3.60539 15.7455 3.67659C15.7868 3.74779 15.7982 3.83241 15.7773 3.91199C15.7564 3.99158 15.7049 4.05968 15.634 4.10145L14.3665 4.83324C14.2175 4.91953 14.0267 4.86867 13.9404 4.71973C13.8542 4.57078 13.9051 4.38 14.054 4.29371L15.3215 3.56191ZM11.3046 5.37555L9.26369 7.41648L8.56721 6.54C8.39588 6.32445 8.08228 6.28867 7.86678 6.45996C7.65123 6.63133 7.61541 6.94488 7.78678 7.16043L8.8117 8.45023C8.98893 8.7041 9.35389 8.73883 9.57475 8.51793L12.0108 6.08187C12.2058 5.88684 12.2058 5.57062 12.0108 5.37555C11.8158 5.18055 11.4996 5.18055 11.3046 5.37555Z" fill="currentColor"/>
</svg>
