<svg width="22" height="22" viewBox="0 0 22 22" fill="none" xmlns="http://www.w3.org/2000/svg">
<path d="M9.61292 20.218C9.47479 20.2947 9.32289 20.3435 9.1659 20.3616C9.0089 20.3796 8.84989 20.3666 8.69795 20.3232C8.546 20.2798 8.4041 20.2068 8.28034 20.1086C8.15658 20.0103 8.05339 19.8886 7.97667 19.7505L6.88698 17.7877H1.44885V19.2589C1.44935 19.6234 1.59438 19.9729 1.85213 20.2306C2.10989 20.4884 2.45933 20.6334 2.82385 20.6339H12.9885C13.3531 20.6334 13.7025 20.4884 13.9603 20.2306C14.218 19.9729 14.363 19.6234 14.3635 19.2589V17.7877C14.3635 17.7877 14.0439 17.7825 14.0129 17.7739L9.61292 20.218ZM5.87463 15.9658L4.70588 13.8603L4.36385 13.2433C4.28709 13.1052 4.23829 12.9533 4.22024 12.7963C4.20219 12.6393 4.21524 12.4803 4.25865 12.3283C4.30207 12.1764 4.37499 12.0345 4.47325 11.9107C4.57152 11.7869 4.6932 11.6838 4.83135 11.607L14.3635 6.31328V2.39453C14.363 2.03001 14.218 1.68057 13.9603 1.42281C13.7025 1.16506 13.3531 1.02003 12.9885 1.01953H2.82385C2.45933 1.02003 2.10989 1.16506 1.85213 1.42281C1.59438 1.68057 1.44935 2.03001 1.44885 2.39453V17.1002H6.50541L5.87463 15.9658ZM8.1537 3.58047H12.5571C12.6483 3.58047 12.7357 3.61669 12.8002 3.68115C12.8647 3.74562 12.9009 3.83305 12.9009 3.92422C12.9009 4.01539 12.8647 4.10282 12.8002 4.16729C12.7357 4.23175 12.6483 4.26797 12.5571 4.26797H8.1537C8.06253 4.26797 7.97509 4.23175 7.91063 4.16729C7.84616 4.10282 7.80995 4.01539 7.80995 3.92422C7.80995 3.83305 7.84616 3.74562 7.91063 3.68115C7.97509 3.61669 8.06253 3.58047 8.1537 3.58047ZM8.1537 5.81313H12.5571C12.6483 5.81313 12.7357 5.84934 12.8002 5.91381C12.8647 5.97827 12.9009 6.06571 12.9009 6.15688C12.9009 6.24804 12.8647 6.33548 12.8002 6.39994C12.7357 6.46441 12.6483 6.50063 12.5571 6.50063H8.1537C8.06253 6.50063 7.97509 6.46441 7.91063 6.39994C7.84616 6.33548 7.80995 6.24804 7.80995 6.15688C7.80995 6.06571 7.84616 5.97827 7.91063 5.91381C7.97509 5.84934 8.06253 5.81313 8.1537 5.81313ZM3.86885 8.2125V7.55766C3.61908 7.52364 3.37363 7.46315 3.13666 7.37719C3.09197 7.36332 3.05058 7.34046 3.01502 7.31003C2.97947 7.2796 2.95051 7.24223 2.9299 7.20021C2.9093 7.15819 2.8975 7.11241 2.89521 7.06566C2.89293 7.01892 2.90021 6.9722 2.91662 6.92837C2.93303 6.88455 2.95821 6.84453 2.99063 6.81078C3.02304 6.77702 3.06201 6.75024 3.10514 6.73208C3.14827 6.71392 3.19465 6.70475 3.24145 6.70515C3.28825 6.70554 3.33447 6.71549 3.37729 6.73438C3.66948 6.84094 4.36729 6.99906 4.66291 6.79281C4.70245 6.76531 4.82448 6.68109 4.82448 6.37C4.82448 6.02969 4.60276 5.90766 4.05792 5.68937C3.57495 5.49687 2.91323 5.23219 2.91323 4.45875C2.90297 4.28215 2.93633 4.10573 3.01037 3.94507C3.0844 3.78441 3.19684 3.64444 3.33776 3.5375C3.4961 3.42667 3.67782 3.35375 3.86885 3.32437V2.66094C3.86885 2.56977 3.90507 2.48234 3.96953 2.41787C4.034 2.3534 4.12143 2.31719 4.2126 2.31719C4.30377 2.31719 4.3912 2.3534 4.45567 2.41787C4.52014 2.48234 4.55635 2.56977 4.55635 2.66094V3.30891C4.78018 3.33395 5.00115 3.37998 5.21635 3.44641C5.30025 3.47634 5.36925 3.53767 5.40882 3.61747C5.44838 3.69727 5.45543 3.78932 5.42847 3.87422C5.40151 3.95911 5.34264 4.03023 5.26428 4.07258C5.18592 4.11493 5.09418 4.12521 5.00838 4.10125C4.71791 4.00844 4.02698 3.88641 3.74338 4.09437C3.69011 4.13758 3.64896 4.19386 3.62395 4.25773C3.59895 4.3216 3.59095 4.39086 3.60073 4.45875C3.60073 4.73891 3.80698 4.84891 4.31229 5.05172C4.8176 5.25453 5.51198 5.52953 5.51198 6.37C5.52568 6.55996 5.49092 6.7503 5.41095 6.92316C5.33099 7.09601 5.20844 7.24573 5.05479 7.35828C4.90472 7.45877 4.73468 7.52561 4.55635 7.55422V8.2125C4.55635 8.30367 4.52014 8.3911 4.45567 8.45557C4.3912 8.52003 4.30377 8.55625 4.2126 8.55625C4.12143 8.55625 4.034 8.52003 3.96953 8.45557C3.90507 8.3911 3.86885 8.30367 3.86885 8.2125Z" fill="currentColor"/>
<path d="M6.14274 15.0326L18.4404 8.20055H18.4421L17.9402 7.29821L5.64086 14.1285L6.14274 15.0326ZM4.96368 12.9116L5.30571 13.5287L17.6051 6.69665L17.2631 6.08133C17.1963 5.96214 17.0851 5.87414 16.9538 5.83648C16.8225 5.79882 16.6816 5.81455 16.5618 5.88024L5.16477 12.2104C5.1055 12.2432 5.05328 12.2874 5.01109 12.3404C4.9689 12.3934 4.93758 12.4542 4.9189 12.5193C4.90023 12.5845 4.89457 12.6526 4.90225 12.72C4.90993 12.7873 4.93081 12.8524 4.96368 12.9116ZM18.7756 8.80211L6.47618 15.6341L7.48336 17.4457L8.57821 19.4171C8.61103 19.4764 8.65521 19.5286 8.70822 19.5708C8.76123 19.613 8.82203 19.6443 8.88716 19.663C8.95228 19.6817 9.02045 19.6873 9.08776 19.6796C9.15508 19.672 9.22022 19.6511 9.27946 19.6182L13.1913 17.4457L20.6765 13.2881C20.736 13.2555 20.7885 13.2115 20.8309 13.1585C20.8733 13.1055 20.9048 13.0446 20.9235 12.9794C20.9422 12.9142 20.9477 12.8459 20.9399 12.7785C20.932 12.7111 20.9108 12.646 20.8776 12.5868L18.7756 8.80211ZM15.6818 14.4637C15.6225 14.4969 15.5546 14.5117 15.4868 14.5064C15.419 14.501 15.3543 14.4756 15.301 14.4335C15.2476 14.3913 15.2079 14.3343 15.187 14.2696C15.166 14.2049 15.1647 14.1355 15.1832 14.0701C15.2017 14.0046 15.2393 13.9462 15.291 13.902C15.3428 13.8579 15.4065 13.8302 15.474 13.8223C15.5415 13.8144 15.6099 13.8267 15.6705 13.8576C15.731 13.8886 15.781 13.9368 15.8141 13.9962C15.8581 14.0758 15.8689 14.1696 15.8441 14.2571C15.8193 14.3447 15.761 14.4189 15.6818 14.4637ZM17.3799 13.5201C17.3206 13.5533 17.2527 13.5681 17.1849 13.5628C17.1171 13.5574 17.0525 13.532 16.9991 13.4899C16.9457 13.4478 16.906 13.3907 16.8851 13.326C16.8641 13.2613 16.8628 13.1919 16.8813 13.1265C16.8999 13.061 16.9374 13.0026 16.9891 12.9585C17.0409 12.9143 17.1046 12.8866 17.1721 12.8787C17.2397 12.8708 17.308 12.8831 17.3686 12.914C17.4291 12.945 17.4791 12.9932 17.5123 13.0526C17.5567 13.1321 17.5677 13.2261 17.5428 13.3137C17.518 13.4014 17.4594 13.4756 17.3799 13.5201ZM18.9646 12.6401C18.9051 12.673 18.8373 12.6876 18.7695 12.6819C18.7018 12.6763 18.6372 12.6507 18.584 12.6083C18.5309 12.566 18.4914 12.5089 18.4707 12.4441C18.45 12.3794 18.4489 12.3099 18.4677 12.2446C18.4864 12.1793 18.5241 12.1209 18.576 12.077C18.6278 12.0331 18.6916 12.0055 18.7591 11.9978C18.8266 11.9901 18.895 12.0026 18.9554 12.0337C19.0158 12.0648 19.0657 12.1131 19.0987 12.1726C19.1424 12.2525 19.1528 12.3464 19.1277 12.4339C19.1026 12.5214 19.044 12.5955 18.9646 12.6401Z" fill="currentColor"/>
</svg>
