<svg width="22" height="22" viewBox="0 0 22 22" fill="none" xmlns="http://www.w3.org/2000/svg">
<g clip-path="url(#clip0_313_8717)">
<path fill-rule="evenodd" clip-rule="evenodd" d="M11 1.83301C5.93729 1.83301 1.83337 5.93692 1.83337 10.9997C1.83337 16.0624 5.93729 20.1663 11 20.1663C16.0628 20.1663 20.1667 16.0624 20.1667 10.9997C20.1667 5.93692 16.0628 1.83301 11 1.83301ZM7.79171 8.70801C7.79171 8.28668 7.87469 7.86948 8.03593 7.48023C8.19716 7.09098 8.43349 6.73729 8.73141 6.43937C9.02933 6.14145 9.38301 5.90513 9.77226 5.74389C10.1615 5.58266 10.5787 5.49967 11 5.49967C11.4214 5.49967 11.8386 5.58266 12.2278 5.74389C12.6171 5.90513 12.9708 6.14145 13.2687 6.43937C13.5666 6.73729 13.8029 7.09098 13.9642 7.48023C14.1254 7.86948 14.2084 8.28668 14.2084 8.70801C14.2084 9.55891 13.8704 10.375 13.2687 10.9766C12.667 11.5783 11.8509 11.9163 11 11.9163C10.1491 11.9163 9.33309 11.5783 8.73141 10.9766C8.12973 10.375 7.79171 9.55891 7.79171 8.70801ZM16.7365 15.5683C16.0504 16.4315 15.178 17.1285 14.1847 17.6072C13.1914 18.0859 12.1027 18.334 11 18.333C9.89737 18.334 8.80871 18.0859 7.81538 17.6072C6.82206 17.1285 5.94972 16.4315 5.26354 15.5683C6.74946 14.5023 8.77712 13.7497 11 13.7497C13.223 13.7497 15.2506 14.5023 16.7365 15.5683Z" fill="currentColor"/>
</g>
<defs>
<clipPath id="clip0_313_8717">
<rect width="22" height="22" fill="currentColor"/>
</clipPath>
</defs>
</svg>
