<svg width="22" height="22" viewBox="0 0 22 22" fill="none" xmlns="http://www.w3.org/2000/svg">
<g clip-path="url(#clip0_331_406)">
<path d="M5.15625 5.5H1.08625L5.5 1.08625V5.15625C5.5 5.34188 5.34188 5.5 5.15625 5.5ZM13.4819 14.4375L12.1069 17.1875L14.8569 15.8125L19.1812 11.4881L17.8062 10.1131L13.4819 14.4375ZM21.0444 8.25C20.6663 7.87187 20.0269 7.8925 19.6213 8.29125L18.7756 9.13688L20.1506 10.5119L20.9963 9.66625C21.4019 9.2675 21.4225 8.62813 21.0444 8.25ZM10.8762 16.5756C10.615 17.105 10.7181 17.7444 11.1375 18.1569C11.3988 18.425 11.7494 18.5625 12.1069 18.5625C12.3131 18.5625 12.5262 18.5144 12.7188 18.4181L15.4688 17.0431C15.6062 16.9744 15.7231 16.8919 15.8263 16.7819L17.1875 15.4206V19.5938C17.1875 20.5425 16.4175 21.3125 15.4688 21.3125H2.40625C1.4575 21.3125 0.6875 20.5425 0.6875 19.5938V6.875H5.15625C6.105 6.875 6.875 6.105 6.875 5.15625V0.6875H15.4688C16.4175 0.6875 17.1875 1.4575 17.1875 2.40625V8.77938L12.5056 13.4681C12.4025 13.5712 12.32 13.6881 12.2512 13.8256L10.8762 16.5756ZM5.98812 16.0119C5.72 15.7438 5.28 15.7438 5.01188 16.0119L4.125 16.9056L3.92563 16.6994C3.6575 16.4313 3.2175 16.4313 2.94937 16.6994C2.68125 16.9675 2.68125 17.4075 2.94937 17.6756L3.63687 18.3631C3.77437 18.4937 3.94625 18.5625 4.125 18.5625C4.30375 18.5625 4.47563 18.4937 4.61313 18.3631L5.98812 16.9881C6.25625 16.72 6.25625 16.28 5.98812 16.0119ZM5.98812 12.5744C5.72 12.3063 5.28 12.3063 5.01188 12.5744L4.125 13.4681L3.92563 13.2619C3.6575 12.9938 3.2175 12.9938 2.94937 13.2619C2.68125 13.53 2.68125 13.97 2.94937 14.2381L3.63687 14.9256C3.77437 15.0562 3.94625 15.125 4.125 15.125C4.30375 15.125 4.47563 15.0562 4.61313 14.9256L5.98812 13.5506C6.25625 13.2825 6.25625 12.8425 5.98812 12.5744ZM5.98812 9.13688C5.72 8.86875 5.28 8.86875 5.01188 9.13688L4.125 10.0306L3.92563 9.82438C3.6575 9.55625 3.2175 9.55625 2.94937 9.82438C2.68125 10.0925 2.68125 10.5325 2.94937 10.8006L3.63687 11.4881C3.77437 11.6187 3.94625 11.6875 4.125 11.6875C4.30375 11.6875 4.47563 11.6187 4.61313 11.4881L5.98812 10.1131C6.25625 9.845 6.25625 9.405 5.98812 9.13688ZM7.5625 10.3125C7.5625 10.6906 7.87187 11 8.25 11H14.4375C14.8156 11 15.125 10.6906 15.125 10.3125C15.125 9.93437 14.8156 9.625 14.4375 9.625H8.25C7.87187 9.625 7.5625 9.93437 7.5625 10.3125ZM10.3125 17.1875C10.3125 16.8094 10.0031 16.5 9.625 16.5H8.25C7.87187 16.5 7.5625 16.8094 7.5625 17.1875C7.5625 17.5656 7.87187 17.875 8.25 17.875H9.625C10.0031 17.875 10.3125 17.5656 10.3125 17.1875ZM11 13.75C11 13.3719 10.6906 13.0625 10.3125 13.0625H8.25C7.87187 13.0625 7.5625 13.3719 7.5625 13.75C7.5625 14.1281 7.87187 14.4375 8.25 14.4375H10.3125C10.6906 14.4375 11 14.1281 11 13.75Z" fill="currentColor"/>
</g>
<defs>
<clipPath id="clip0_331_406">
<rect width="22" height="22" fill="currentColor"/>
</clipPath>
</defs>
</svg>
