<svg width="22" height="24" viewBox="0 0 22 24" fill="none" xmlns="http://www.w3.org/2000/svg">
<path fill-rule="evenodd" clip-rule="evenodd" d="M4.94653 3.85254V6.60865L7.13461 5.2306L4.94653 3.85254Z" fill="currentColor"/>
<path fill-rule="evenodd" clip-rule="evenodd" d="M4.83371 3.21321L7.70173 5.02015C7.73584 5.04181 7.76414 5.07284 7.78381 5.11017C7.80349 5.14749 7.81384 5.18978 7.81384 5.23284C7.81384 5.27589 7.80349 5.31819 7.78381 5.35551C7.76414 5.39283 7.73584 5.42387 7.70173 5.44552L4.83371 7.25246C4.79941 7.27406 4.76051 7.28543 4.72092 7.28543C4.68132 7.28543 4.64242 7.27406 4.60813 7.25246C4.57366 7.23075 4.54507 7.19948 4.52526 7.16182C4.50545 7.12415 4.49513 7.08144 4.49534 7.03802V3.42765C4.49569 3.38464 4.50637 3.34248 4.52631 3.30537C4.54625 3.26827 4.57476 3.23751 4.60899 3.21617C4.64323 3.19483 4.68199 3.18365 4.72142 3.18375C4.76084 3.18385 4.79956 3.19522 4.83371 3.21672V3.21321ZM5.78434 1.72266C4.96146 1.77188 4.18714 2.16316 3.62058 2.81604C3.05402 3.46893 2.73828 4.3338 2.73828 5.23284C2.73828 6.13187 3.05402 6.99674 3.62058 7.64963C4.18714 8.30251 4.96146 8.69379 5.78434 8.74302C6.60722 8.69379 7.38154 8.30251 7.9481 7.64963C8.51467 6.99674 8.8304 6.13187 8.8304 5.23284C8.8304 4.3338 8.51467 3.46893 7.9481 2.81604C7.38154 2.16316 6.60722 1.77188 5.78434 1.72266Z" fill="currentColor"/>
<path fill-rule="evenodd" clip-rule="evenodd" d="M9.01006 3.3257C9.26633 3.84366 9.41487 4.41684 9.44513 5.0045C9.47538 5.59217 9.38661 6.17989 9.18511 6.7259C8.98362 7.2719 8.67435 7.76279 8.27929 8.16366C7.88423 8.56454 7.41308 8.86556 6.89932 9.04534C6.81449 9.36462 6.70674 9.67611 6.57707 9.97694C6.53518 10.0683 6.49328 10.1738 6.46106 10.2582C6.62863 10.216 6.9541 10.0824 7.58571 9.77655C7.99497 9.57617 8.66847 9.42501 9.55788 9.83983C10.1186 9.9699 10.5214 9.8996 10.6922 9.63945C10.8404 9.40743 10.805 9.02425 10.602 8.66567C10.0058 7.61103 10.0413 6.71811 10.7019 6.20837C10.7361 6.1826 10.7762 6.16765 10.8177 6.16517C10.8592 6.16269 10.9005 6.17277 10.9371 6.19431C10.9822 6.21891 12.036 6.79896 12.7482 5.86737C12.7804 5.82551 12.8245 5.79656 12.8736 5.7851C12.9226 5.77365 12.9737 5.78033 13.0188 5.80409C13.0414 5.81464 15.1392 6.90443 16.4025 5.86385C15.4904 4.75797 14.3232 3.93916 13.0225 3.49274C11.7217 3.04632 10.3382 2.98864 9.01006 3.3257Z" fill="currentColor"/>
<path fill-rule="evenodd" clip-rule="evenodd" d="M10.8663 6.70017C10.4248 7.15015 10.6793 7.8673 10.9855 8.40517C11.2916 8.94303 11.3206 9.52308 11.0596 9.92384C10.8953 10.177 10.4667 10.5637 9.44191 10.3176C9.42759 10.3142 9.41357 10.3095 9.40002 10.3035C8.79741 10.0188 8.24958 9.99415 7.76943 10.2262C6.98959 10.6058 6.57711 10.7711 6.32897 10.7711C6.28063 10.7745 6.23215 10.7669 6.18665 10.7488C6.14114 10.7306 6.09962 10.7023 6.06473 10.6656C5.87782 10.4547 5.99706 10.1734 6.1614 9.77268C6.23874 9.59339 6.32253 9.39653 6.3902 9.17857C5.90437 9.26634 5.40732 9.24685 4.92852 9.12125C4.44971 8.99565 3.99888 8.76649 3.60274 8.44735C3.23477 9.48305 3.06162 10.5889 3.09358 11.6991L4.90785 12.585C4.96146 12.6106 5.00386 12.6579 5.0261 12.7169C5.04835 12.776 5.0487 12.8421 5.02708 12.9014C4.98197 13.0245 4.92074 13.2495 5.0013 13.3549C5.12376 13.5061 5.54268 13.4955 5.79082 13.4323C5.83859 13.4215 5.88827 13.4276 5.93261 13.4498L7.35695 14.1459C7.51808 14.2232 7.58253 14.3428 7.60831 14.4271C7.67598 14.6521 7.55997 14.8771 7.46007 15.074C7.2925 15.3974 7.31828 15.4185 7.36984 15.4537C8.46549 16.2411 8.23025 17.4258 8.13035 17.7739C8.05946 18.0199 7.7501 18.3012 7.12171 18.7933C7.84999 19.2187 8.64595 19.5245 9.49347 19.6722C9.72936 19.1897 10.1192 18.8183 10.5891 18.6281H10.5956L13.0253 17.7563V16.9337L13.0157 16.9266C12.8102 16.7038 12.6474 16.4386 12.5367 16.1465C12.4261 15.8544 12.3698 15.5412 12.3712 15.2251V14.5115C11.5333 13.1651 12.0038 12.2616 12.297 11.8925L11.6977 11.1824C11.6674 11.1474 11.6473 11.1035 11.6397 11.0562C11.6321 11.0089 11.6373 10.9601 11.6548 10.916C11.6723 10.8719 11.7012 10.8343 11.738 10.8079C11.7748 10.7816 11.8179 10.7675 11.862 10.7676H13.4249C14.0008 10.604 14.5993 10.5564 15.1908 10.6269C15.0831 10.361 15.0409 10.0689 15.0684 9.77971C15.1457 8.82702 15.8998 7.79699 17.1469 6.92516C17.0071 6.68974 16.8565 6.46212 16.6958 6.24316C16.2109 6.63397 15.6193 6.83465 15.0168 6.81267C14.1371 6.81267 13.3154 6.4787 12.977 6.3205C12.2938 7.07633 11.3754 6.93219 10.8663 6.70017Z" fill="currentColor"/>
<path fill-rule="evenodd" clip-rule="evenodd" d="M17.3821 7.34766C16.2606 8.1316 15.5839 9.02453 15.5162 9.82254C15.4975 10.0105 15.5205 10.2006 15.5833 10.3769C15.6461 10.5531 15.7469 10.7102 15.8772 10.835C15.9738 10.8807 16.0705 10.9334 16.1543 10.9967C16.4416 11.1857 16.6671 11.4686 16.7988 11.8053C17.4175 12.9267 17.0985 13.7001 16.8858 14.2098C16.8421 14.3094 16.8033 14.4115 16.7698 14.5157V15.2258C16.7698 15.8937 16.5184 16.4949 16.1124 16.9308V17.3667C17.3021 16.0798 18.0709 14.4019 18.3003 12.5914C18.5297 10.7809 18.2071 8.93839 17.3821 7.34766ZM4.54041 12.9478L3.12573 12.2552C3.24375 13.5268 3.62648 14.7522 4.24472 15.8379C4.86296 16.9236 5.70036 17.8409 6.69304 18.5198L6.82516 18.4143C7.07007 18.2245 7.63401 17.7815 7.69524 17.6233C7.79851 17.3023 7.79721 16.9522 7.69156 16.632C7.58591 16.3119 7.38236 16.0412 7.11519 15.8656C6.68659 15.5562 6.9315 15.0852 7.06363 14.8321C7.10524 14.757 7.14082 14.6782 7.16997 14.5965L5.80685 13.9321C5.58128 13.9743 4.95289 14.0516 4.65642 13.6755C4.51141 13.4927 4.46951 13.2466 4.53719 12.9478H4.54041Z" fill="currentColor"/>
<path fill-rule="evenodd" clip-rule="evenodd" d="M13.4506 11.2634H12.3775L12.7771 11.7345C12.7987 11.7599 12.8151 11.7901 12.8253 11.8229C12.8355 11.8558 12.8391 11.8906 12.8361 11.9251C12.8331 11.9597 12.8234 11.9931 12.8076 12.0232C12.7919 12.0534 12.7705 12.0796 12.7449 12.1001C12.7127 12.1247 12.1326 12.6203 12.4388 13.5941C12.4467 13.5658 12.4553 13.5376 12.4645 13.5098C12.6321 12.9895 12.9866 12.645 13.5473 12.4551H13.5602C13.5989 12.4446 14.4786 12.2161 15.0522 12.8067C15.2778 12.7047 15.6967 12.5746 16.0737 12.7364C16.2148 12.802 16.341 12.9005 16.4434 13.025C16.5459 13.1495 16.6221 13.297 16.6667 13.457C16.7505 13.0809 16.7344 12.6344 16.3992 12.0403C16.3898 12.0225 16.3822 12.0037 16.3767 11.9841C16.367 11.9559 16.2317 11.5411 15.6999 11.281C15.6785 11.276 15.6579 11.2677 15.6387 11.2564C15.2101 11.07 14.5366 10.9892 13.5054 11.2564C13.4875 11.261 13.4691 11.2634 13.4506 11.2634Z" fill="currentColor"/>
<path fill-rule="evenodd" clip-rule="evenodd" d="M13.6731 12.9302C13.1317 13.113 12.9706 13.4224 12.89 13.672C12.8399 13.8277 12.8158 13.9921 12.8191 14.1571V15.2258C12.8183 15.4766 12.863 15.7251 12.9506 15.9569C13.0383 16.1887 13.1672 16.3993 13.3299 16.5765C13.4926 16.7536 13.6859 16.8939 13.8985 16.9891C14.1112 17.0843 14.3391 17.1326 14.5689 17.1312H14.5786C15.0402 17.1275 15.4818 16.9253 15.8076 16.5686C16.1334 16.2119 16.3171 15.7294 16.3187 15.2258V14.1255C16.3194 13.979 16.2999 13.8332 16.2607 13.6931C16.1866 13.4329 16.0706 13.2712 15.9063 13.2009C15.6259 13.0744 15.236 13.2431 15.1103 13.3204C15.0631 13.3498 15.0077 13.3595 14.9545 13.3479C14.9012 13.3363 14.8535 13.3041 14.8203 13.2572C14.4561 12.7615 13.7407 12.9162 13.6731 12.9302ZM14.7945 19.4479V22.2778H17.6239V21.304C17.6239 21.2388 17.6476 21.1762 17.6899 21.13C17.7322 21.0839 17.7896 21.058 17.8494 21.058C17.9093 21.058 17.9666 21.0839 18.0089 21.13C18.0512 21.1762 18.075 21.2388 18.075 21.304V22.2743H19.3189C19.3833 22.2743 19.4349 22.2181 19.4349 22.1513V20.717C19.4335 20.3629 19.3335 20.0177 19.1482 19.727C18.9629 19.4364 18.701 19.214 18.3973 19.0893L17.3467 18.7132L16.1544 20.049C16.0875 20.1243 15.9981 20.1711 15.9023 20.1807C15.8066 20.1904 15.7108 20.1624 15.6324 20.1018L14.7945 19.4479ZM11.7944 18.7167L10.7406 19.0928C10.4374 19.2181 10.1763 19.4407 9.99155 19.7313C9.80686 20.0219 9.70735 20.3668 9.70618 20.7205V22.1548C9.70618 22.2216 9.75774 22.2778 9.81896 22.2778H11.0628V21.304C11.0628 21.2388 11.0866 21.1762 11.1289 21.13C11.1712 21.0839 11.2286 21.058 11.2884 21.058C11.3482 21.058 11.4056 21.0839 11.4479 21.13C11.4902 21.1762 11.514 21.2388 11.514 21.304V22.2743H14.3434V19.4479L13.5055 20.1018C13.4274 20.1628 13.3319 20.1914 13.2361 20.1824C13.1404 20.1734 13.0508 20.1273 12.9835 20.0525L11.7911 18.7167H11.7944Z" fill="currentColor"/>
<path fill-rule="evenodd" clip-rule="evenodd" d="M13.2123 18.2101L12.2681 18.5441L13.2767 19.6761L14.1822 18.9695L13.2123 18.2101ZM15.6614 17.3066C15.3328 17.5126 14.9607 17.6216 14.5818 17.623H14.5657C14.1827 17.625 13.806 17.5171 13.4733 17.3102V17.8094L14.5689 18.6636L15.6581 17.8094L15.6614 17.3066ZM15.9256 18.2101L14.9589 18.9695L15.8612 19.6761L16.8698 18.5441L15.9256 18.2101Z" fill="currentColor"/>
</svg>
